<?xml version="1.0" encoding="iso-8859-1"?>
<!-- Generator: Adobe Illustrator 19.0.0, SVG Export Plug-In . SVG Version: 6.00 Build 0)  -->
<svg version="1.1" id="Capa_1" xmlns="http://www.w3.org/2000/svg" xmlns:xlink="http://www.w3.org/1999/xlink" x="0px" y="0px"
	 viewBox="0 0 512.001 512.001" style="enable-background:new 0 0 512.001 512.001;" xml:space="preserve">
<g>
	<g>
		<circle style="fill:#FFE17D;" cx="256" cy="256.048" r="248.5"/>
		<path style="fill:#FFD164;" d="M292.073,468.475c-137.243,0-248.5-111.258-248.5-248.5c0-59.433,20.891-113.971,55.695-156.733
			C43.284,108.807,7.5,178.238,7.5,256.048c0,137.242,111.257,248.5,248.5,248.5c77.81,0,147.242-35.784,192.806-91.769
			C406.045,447.584,351.506,468.475,292.073,468.475z"/>
		<path style="fill:#FFFFFF;" d="M185.788,395.478l38.182-107.22l-79.22,81.661c-4.759,4.906-12.459,6.215-18.139,2.412
			c-9.719-6.507-22.642-8.132-34.786-2.269c-10.731,5.181-18.015,16.069-19.097,27.936c-0.64,7.018,0.73,13.244,3.419,18.573
			c2.498,4.952,2.086,13.311-0.269,18.332c-5.421,11.557-6.377,25.323-1.151,38.65c7.704,19.647,28.107,32.33,49.134,30.543
			c14.264-1.212,26.185-8.161,34.149-18.138c3.46-4.334,10.774-8.403,16.32-8.355c5.969,0.053,12.158-1.474,18.169-5.154
			c10.162-6.223,16.703-17.573,16.599-29.489c-0.118-13.484-7.294-24.353-17.43-30.189
			C185.743,409.362,183.495,401.917,185.788,395.478z"/>
		<path style="fill:#FFF1C4;" d="M98.74,465.391c-5.156-13.15-4.294-26.727,0.937-38.187c2.734-5.988,3.448-12.918,0.483-18.795
			c-2.485-4.925-3.844-10.617-3.53-16.992c0.477-9.68,5.143-18.708,12.361-24.874c-4.68-0.228-9.515,0.439-14.289,2.273
			c-12.653,4.858-21.42,17.226-22.086,30.763c-0.314,6.376,1.045,12.067,3.53,16.992c2.965,5.877,2.25,12.807-0.483,18.795
			c-5.231,11.461-6.093,25.038-0.937,38.188c7.703,19.647,28.107,32.33,49.135,30.543c8.801-0.748,16.711-3.682,23.349-8.161
			C126.419,497.4,106.362,484.83,98.74,465.391z"/>
		<path style="fill:#FFFFFF;" d="M326.247,395.333l-38.575-107.075l79.614,81.516c4.759,4.906,12.46,6.215,18.139,2.412
			c9.719-6.507,22.642-8.132,34.786-2.269c10.731,5.181,18.015,16.069,19.097,27.936c0.64,7.018-0.73,13.244-3.419,18.573
			c-2.498,4.952-2.086,13.311,0.269,18.332c5.421,11.557,6.377,25.323,1.151,38.65c-7.704,19.647-28.107,32.33-49.134,30.543
			c-14.264-1.212-26.185-8.161-34.149-18.138c-3.46-4.334-10.774-8.403-16.32-8.355c-5.969,0.053-12.158-1.474-18.169-5.154
			c-10.162-6.223-16.703-17.573-16.599-29.489c0.118-13.484,7.294-24.353,17.43-30.189
			C326.291,409.216,328.54,401.772,326.247,395.333z"/>
		<path style="fill:#FFF1C4;" d="M396.19,480.332c-14.074-1.196-25.867-7.977-33.829-17.741c-4.16-5.101-10.058-8.809-16.64-8.751
			c-5.516,0.048-11.221-1.252-16.799-4.355c-10.559-5.874-17.391-17.113-17.878-29.044c-4.349,5.188-7.259,11.752-7.949,19.242
			c-1.243,13.496,5.967,26.831,17.811,33.42c5.578,3.103,11.283,4.403,16.799,4.355c6.582-0.058,12.48,3.65,16.64,8.751
			c7.962,9.763,19.755,16.545,33.829,17.741c21.028,1.787,41.432-10.896,49.135-30.543c1.943-4.955,3.028-9.971,3.349-14.911
			C431.043,473.015,413.886,481.836,396.19,480.332z"/>
	</g>
	<g>
		<path d="M194.042,211.268c-6.759,8.408-16.315,13.231-26.219,13.231c-9.904,0-19.46-4.823-26.218-13.231
			c-2.595-3.228-7.316-3.742-10.544-1.147c-3.229,2.595-3.742,7.316-1.147,10.544c9.62,11.969,23.438,18.834,37.91,18.834
			s28.29-6.865,37.911-18.833c2.595-3.229,2.082-7.949-1.147-10.544C201.357,207.526,196.636,208.04,194.042,211.268z"/>
		<path d="M370.425,211.268c-6.759,8.408-16.315,13.231-26.219,13.231s-19.46-4.823-26.219-13.231
			c-2.595-3.229-7.315-3.742-10.544-1.147c-3.229,2.595-3.742,7.316-1.147,10.544c9.621,11.969,23.438,18.833,37.91,18.833
			s28.29-6.865,37.91-18.833c2.595-3.229,2.082-7.949-1.147-10.544C377.74,207.526,373.019,208.04,370.425,211.268z"/>
		<path d="M214.612,187.257c1.853-3.705,0.351-8.21-3.354-10.062l-80.162-40.081c-3.705-1.852-8.21-0.351-10.062,3.354
			c-1.853,3.705-0.351,8.21,3.354,10.062l80.162,40.081c1.077,0.538,2.221,0.793,3.348,0.793
			C210.649,191.404,213.298,189.885,214.612,187.257z"/>
		<path d="M390.967,140.468c-1.852-3.705-6.356-5.207-10.062-3.354l-80.162,40.081c-3.705,1.853-5.207,6.357-3.354,10.062
			c1.314,2.628,3.962,4.148,6.714,4.148c1.127,0,2.271-0.255,3.348-0.793l80.162-40.081
			C391.318,148.678,392.819,144.173,390.967,140.468z"/>
		<path d="M448.323,87.073c-2.737-3.109-7.477-3.411-10.585-0.674c-3.109,2.737-3.411,7.476-0.674,10.585
			c39.93,45.362,61.196,103.722,59.879,164.332c-1.131,52.05-18.881,101.718-50.453,142.37c0.078-1.477,0.1-2.966,0.026-4.476
			c-0.813-16.504-11.619-31.532-26.889-37.395c-13.073-5.019-27.204-3.458-38.769,4.284c-2.497,1.672-6.187,1.069-8.583-1.402
			l-40.234-41.474c15.025,4.957,28.581,11.407,39.973,19.181c1.293,0.883,2.765,1.306,4.221,1.306c2.396,0,4.75-1.145,6.202-3.273
			c2.335-3.421,1.454-8.088-1.967-10.423c-18.61-12.699-42.346-22.151-68.707-27.694l-18.708-19.284
			c-2.456-2.532-6.346-3.011-9.343-1.147c-2.997,1.863-4.29,5.562-3.106,8.886l2.559,7.185c-8.904-0.867-17.985-1.315-27.165-1.315
			c-9.308,0-18.514,0.462-27.538,1.354l2.573-7.224c1.184-3.324-0.109-7.023-3.106-8.886c-2.998-1.863-6.886-1.385-9.343,1.147
			l-18.797,19.376c-26.182,5.556-49.754,14.975-68.259,27.603c-3.421,2.335-4.302,7.001-1.967,10.423
			c2.334,3.421,7,4.303,10.422,1.968c11.258-7.682,24.629-14.07,39.441-19.003l-40.062,41.296c-2.396,2.47-6.086,3.073-8.583,1.402
			c-11.565-7.742-25.696-9.304-38.769-4.284c-15.27,5.863-26.076,20.891-26.889,37.396c-0.066,1.349-0.051,2.68,0.005,4.002
			c-32.987-42.627-50.641-94.812-50.119-149.48c0.606-63.494,25.67-123.192,70.576-168.097
			c43.604-43.603,101.544-68.633,163.15-70.478c61.339-1.841,120.41,19.41,166.326,59.827c3.11,2.737,7.849,2.435,10.585-0.674
			c2.737-3.109,2.435-7.848-0.674-10.585C376.194,20.785,313.46-1.789,248.289,0.163c-65.442,1.96-126.991,28.548-173.308,74.865
			c-47.701,47.7-74.325,111.115-74.969,178.561C-0.622,319.966,23.967,382.9,69.283,431.161c-0.142,0.364-0.277,0.727-0.443,1.091
			c-6.371,13.956-6.76,29.596-1.097,44.039c8.389,21.396,29.382,35.477,52.097,35.476c1.544,0,3.099-0.065,4.655-0.197
			c14.22-1.209,27.073-7.47,36.59-17.719c30.276,12.059,62.589,18.104,94.919,18.104c32.224,0,64.454-6.013,94.649-18.001
			c9.507,10.187,22.319,16.411,36.492,17.616c1.558,0.132,3.109,0.198,4.655,0.197c22.713-0.001,43.708-14.082,52.097-35.476
			c5.664-14.443,5.274-30.083-1.096-44.039c-0.126-0.275-0.223-0.549-0.335-0.824c43.44-46.144,68.093-106.299,69.473-169.786
			C513.338,197.262,490.745,135.266,448.323,87.073z M123.225,496.623c-17.604,1.496-35.067-9.357-41.517-25.808
			c-4.167-10.626-3.891-22.109,0.778-32.335c3.958-8.673,4.088-17.89,0.356-25.287c-2.048-4.059-2.968-8.516-2.735-13.245
			c0.526-10.666,7.472-20.363,17.284-24.13c3.272-1.256,6.644-1.877,9.98-1.877c5.291,0,10.494,1.561,15.067,4.623
			c8.563,5.732,20.209,4.293,27.694-3.422l55.198-56.899l-26.594,74.68c-3.606,10.126,0.258,21.208,9.188,26.349
			c7.778,4.479,12.716,12.223,13.547,21.246c0.964,10.467-4.658,20.987-13.989,26.178c-4.139,2.302-8.546,3.441-13.088,3.41
			c-8.32-0.103-16.493,4.123-22.518,11.511C144.773,490.327,134.598,495.656,123.225,496.623z M179.906,484.764
			c5.162-0.668,10.136-2.328,14.869-4.96c14.44-8.034,23.134-24.375,21.633-40.663c-1.284-13.944-8.938-25.925-21-32.869
			c-2.604-1.499-3.696-5.074-2.542-8.317l30.002-84.251c10.756-1.358,21.856-2.059,33.131-2.059c11.145,0,22.117,0.688,32.755,2.014
			l30.018,84.296c1.155,3.243,0.062,6.818-2.542,8.317c-12.062,6.945-19.715,18.925-21,32.869
			c-1.5,16.288,7.193,32.629,21.633,40.663c4.798,2.669,9.861,4.355,15.096,5.002C282.823,501.026,229.028,501.009,179.906,484.764z
			 M429.933,470.815c-6.45,16.451-23.913,27.309-41.517,25.808c-11.373-0.967-21.548-6.296-28.652-15.007
			c-5.973-7.325-14.092-11.512-22.306-11.512c-0.07,0-0.142,0-0.212,0.001c-4.534,0.035-8.95-1.107-13.088-3.41
			c-9.331-5.191-14.953-15.711-13.989-26.178c0.831-9.023,5.769-16.768,13.547-21.246c8.93-5.142,12.794-16.223,9.188-26.349
			l-26.594-74.68l55.198,56.899c7.484,7.715,19.131,9.155,27.694,3.422c7.458-4.993,16.587-5.994,25.047-2.745
			c9.813,3.768,16.758,13.465,17.284,24.13c0.233,4.73-0.688,9.186-2.735,13.245c-3.732,7.397-3.603,16.614,0.356,25.288
			C433.823,448.706,434.099,460.189,429.933,470.815z"/>
	</g>
</g>
<g>
</g>
<g>
</g>
<g>
</g>
<g>
</g>
<g>
</g>
<g>
</g>
<g>
</g>
<g>
</g>
<g>
</g>
<g>
</g>
<g>
</g>
<g>
</g>
<g>
</g>
<g>
</g>
<g>
</g>
</svg>
