<?xml version="1.0" encoding="UTF-8" standalone="no"?>
<!DOCTYPE svg PUBLIC "-//W3C//DTD SVG 1.1//EN" "http://www.w3.org/Graphics/SVG/1.1/DTD/svg11.dtd">
<svg version="1.1" xmlns="http://www.w3.org/2000/svg" xmlns:xlink="http://www.w3.org/1999/xlink" preserveAspectRatio="xMidYMid meet" viewBox="0 0 1000 750" width="1000" height="750"><defs><path d="M500 10.99C298.96 10.99 135.99 173.96 135.99 375C135.99 576.04 298.96 739.01 500 739.01C701.04 739.01 864.01 576.04 864.01 375C864.01 173.96 701.04 10.99 500 10.99Z" id="cspvRhWIx"></path><path d="M376.71 375C360.49 375 347.35 361.86 347.35 345.64C347.35 343.3 347.35 324.51 347.35 322.16C347.35 305.95 360.49 292.8 376.71 292.8C376.71 292.8 376.71 292.8 376.71 292.8C392.92 292.8 406.06 305.95 406.06 322.16C406.06 324.51 406.06 343.3 406.06 345.64C406.06 361.86 392.92 375 376.71 375C376.71 375 376.71 375 376.71 375Z" id="b7G85FK9H"></path><path d="M370.83 293.37C370.83 295.67 370.83 314 370.83 316.29C370.83 335.74 386.61 351.51 406.06 351.51C406.06 351.51 406.06 351.51 406.06 351.51L406.06 322.16C395.1 300.54 383.36 290.95 370.83 293.37Z" id="b2GY7dlNII"></path><path d="M188.83 322.16C188.83 235.1 219.43 155.21 270.41 92.57C188.4 159.32 135.99 261.02 135.99 375C135.99 576.04 298.96 739.01 500 739.01C613.98 739.01 715.68 686.59 782.43 604.58C719.79 655.57 639.9 686.17 552.84 686.17C351.8 686.17 188.83 523.2 188.83 322.16Z" id="aNK4epAEP"></path><path d="M623.29 375C607.08 375 593.94 361.86 593.94 345.64C593.94 343.3 593.94 324.51 593.94 322.16C593.94 305.95 607.08 292.8 623.29 292.8C623.29 292.8 623.29 292.8 623.29 292.8C639.51 292.8 652.65 305.95 652.65 322.16C652.65 324.51 652.65 343.3 652.65 345.64C652.65 361.86 639.51 375 623.29 375C623.29 375 623.29 375 623.29 375Z" id="dLq87ogws"></path><path d="M617.42 293.37C617.42 295.67 617.42 314 617.42 316.29C617.42 335.74 633.2 351.51 652.65 351.51C652.65 351.51 652.65 351.51 652.65 351.51L652.65 322.16C641.69 300.54 629.95 290.95 617.42 293.37Z" id="d6swUCgYXJ"></path><path d="M387.68 292.79C387.68 286.72 382.76 281.81 376.69 281.81C354.44 281.81 336.35 299.91 336.35 322.15C336.35 324.5 336.35 343.29 336.35 345.64C336.35 367.89 354.44 385.98 376.69 385.98C398.94 385.98 417.04 367.89 417.04 345.64C417.04 343.88 417.04 329.78 417.04 328.02C417.04 321.96 412.12 317.04 406.05 317.04C399.98 317.04 395.06 321.96 395.06 328.02C395.06 329.78 395.06 343.88 395.06 345.64C395.06 355.77 386.82 364.01 376.69 364.01C366.56 364.01 358.32 355.77 358.32 345.64C358.32 343.29 358.32 324.5 358.32 322.15C358.32 312.02 366.56 303.78 376.69 303.78C382.76 303.78 387.68 298.86 387.68 292.79Z" id="a4TISnMCR7"></path><path d="M663.65 328.02C663.65 321.96 658.73 317.04 652.67 317.04C646.6 317.04 641.68 321.96 641.68 328.02C641.68 329.79 641.68 343.88 641.68 345.64C641.68 355.77 633.44 364.01 623.31 364.01C613.18 364.01 604.94 355.77 604.94 345.64C604.94 343.29 604.94 324.5 604.94 322.15C604.94 312.02 613.18 303.78 623.31 303.78C629.38 303.78 634.3 298.86 634.3 292.8C634.3 286.73 629.38 281.81 623.31 281.81C601.06 281.81 582.96 299.91 582.96 322.15C582.96 324.5 582.96 343.29 582.96 345.64C582.96 367.89 601.06 385.99 623.31 385.99C645.56 385.99 663.65 367.89 663.65 345.64C663.65 342.12 663.65 329.79 663.65 328.02Z" id="coXo5pFpi"></path><path d="M625.52 498.86L624.88 483.33C635.34 483.65 630.16 483.87 609.35 483.98C588.54 484.08 552.09 484.08 500 483.98C447.91 484.08 411.46 484.08 390.65 483.98C369.84 483.87 364.66 483.65 375.12 483.33L374.48 498.86L504.53 498.86L625.52 498.86Z" id="bhNWJun7l"></path><path d="M250.34 125.34C314.21 61.47 399.09 24.82 489.32 22.13C579.17 19.46 665.69 50.59 732.97 109.81C737.52 113.81 744.46 113.37 748.47 108.82C752.48 104.26 752.04 97.32 747.48 93.31C676.01 30.41 584.09 -2.68 488.67 0.17C392.81 3.02 302.65 41.96 234.81 109.81C166.96 177.65 128.02 267.81 125.17 363.67C122.33 459.1 155.41 551.02 218.31 622.48C220.48 624.95 223.51 626.21 226.56 626.21C229.14 626.21 231.73 625.31 233.82 623.47C238.37 619.46 238.81 612.52 234.8 607.97C175.59 540.7 144.46 454.17 147.13 364.32C149.82 274.08 186.47 189.21 250.34 125.34Z" id="b1MWShSJgT"></path><path d="M766.18 126.53C761.63 130.53 761.19 137.48 765.19 142.03C824.4 209.3 855.54 295.83 852.87 385.67C850.18 475.91 813.53 560.78 749.66 624.66C685.79 688.53 600.91 725.18 510.68 727.87C420.83 730.54 334.31 699.4 267.03 640.19C262.48 636.18 255.54 636.63 251.53 641.18C247.52 645.74 247.96 652.68 252.52 656.69C321.15 717.09 408.64 750 499.99 750C503.76 750 507.54 749.94 511.33 749.83C607.19 746.97 697.35 708.04 765.19 640.19C833.04 572.34 871.98 482.19 874.83 386.33C877.67 290.9 844.59 198.98 781.69 127.51C777.68 122.96 770.74 122.52 766.18 126.53Z" id="l2WuTc99Z1"></path><path d="" id="e3yBN2oRsw"></path></defs><g><g><g><use xlink:href="#cspvRhWIx" opacity="1" fill="#ffe17d" fill-opacity="1"></use><g><use xlink:href="#cspvRhWIx" opacity="1" fill-opacity="0" stroke="#000000" stroke-width="1" stroke-opacity="0"></use></g></g><g><use xlink:href="#b7G85FK9H" opacity="1" fill="#7d5046" fill-opacity="1"></use><g><use xlink:href="#b7G85FK9H" opacity="1" fill-opacity="0" stroke="#000000" stroke-width="1" stroke-opacity="0"></use></g></g><g><use xlink:href="#b2GY7dlNII" opacity="1" fill="#9c6846" fill-opacity="1"></use><g><use xlink:href="#b2GY7dlNII" opacity="1" fill-opacity="0" stroke="#000000" stroke-width="1" stroke-opacity="0"></use></g></g><g><use xlink:href="#aNK4epAEP" opacity="1" fill="#ffd164" fill-opacity="1"></use><g><use xlink:href="#aNK4epAEP" opacity="1" fill-opacity="0" stroke="#000000" stroke-width="1" stroke-opacity="0"></use></g></g><g><use xlink:href="#dLq87ogws" opacity="1" fill="#7d5046" fill-opacity="1"></use><g><use xlink:href="#dLq87ogws" opacity="1" fill-opacity="0" stroke="#000000" stroke-width="1" stroke-opacity="0"></use></g></g><g><use xlink:href="#d6swUCgYXJ" opacity="1" fill="#9c6846" fill-opacity="1"></use><g><use xlink:href="#d6swUCgYXJ" opacity="1" fill-opacity="0" stroke="#000000" stroke-width="1" stroke-opacity="0"></use></g></g><g><use xlink:href="#a4TISnMCR7" opacity="1" fill="#000000" fill-opacity="1"></use><g><use xlink:href="#a4TISnMCR7" opacity="1" fill-opacity="0" stroke="#000000" stroke-width="1" stroke-opacity="0"></use></g></g><g><use xlink:href="#coXo5pFpi" opacity="1" fill="#000000" fill-opacity="1"></use><g><use xlink:href="#coXo5pFpi" opacity="1" fill-opacity="0" stroke="#000000" stroke-width="1" stroke-opacity="0"></use></g></g><g><use xlink:href="#bhNWJun7l" opacity="1" fill="#000000" fill-opacity="1"></use><g><use xlink:href="#bhNWJun7l" opacity="1" fill-opacity="0" stroke="#000000" stroke-width="1" stroke-opacity="0"></use></g></g><g><use xlink:href="#b1MWShSJgT" opacity="1" fill="#000000" fill-opacity="1"></use><g><use xlink:href="#b1MWShSJgT" opacity="1" fill-opacity="0" stroke="#000000" stroke-width="1" stroke-opacity="0"></use></g></g><g><use xlink:href="#l2WuTc99Z1" opacity="1" fill="#000000" fill-opacity="1"></use><g><use xlink:href="#l2WuTc99Z1" opacity="1" fill-opacity="0" stroke="#000000" stroke-width="1" stroke-opacity="0"></use></g></g><g><g><use xlink:href="#e3yBN2oRsw" opacity="1" fill-opacity="0" stroke="#000000" stroke-width="1" stroke-opacity="1"></use></g></g></g></g></svg>